<?xml version="1.0" encoding="iso-8859-1"?>
<!-- Generator: Adobe Illustrator 19.0.0, SVG Export Plug-In . SVG Version: 6.00 Build 0)  -->
<svg version="1.1" id="Layer_1" xmlns="http://www.w3.org/2000/svg" xmlns:xlink="http://www.w3.org/1999/xlink" x="0px" y="0px"
	 viewBox="0 0 511.999 511.999" style="enable-background:new 0 0 511.999 511.999;" xml:space="preserve">
<g>
	<g>
		<path d="M256,278.786c-17.554,0-31.836,14.282-31.836,31.836c0,17.554,14.282,31.835,31.836,31.835s31.835-14.281,31.835-31.835
			S273.554,278.786,256,278.786z M255.999,326.85c-8.95,0-16.23-7.28-16.23-16.229c0-8.949,7.28-16.23,16.23-16.23
			c8.949,0.001,16.229,7.281,16.229,16.23C272.228,319.571,264.948,326.85,255.999,326.85z"/>
	</g>
</g>
<g>
	<g>
		<circle cx="255.999" cy="310.622" r="7.187"/>
	</g>
</g>
<g>
	<g>
		<path d="M479.082,117.884c-17.783,0-34.397,1.87-46.543,5.179c-4.007-2.95-8.784-4.492-14.089-4.492
			c-5.304,0-10.082,1.542-14.087,4.492c-12.145-3.309-28.759-5.179-46.543-5.179c-22.616,0-32.918,11.964-32.918,23.079
			c0,11.116,10.301,23.079,32.918,23.079c12.241,0,24.061-0.897,34.244-2.565c0.112,1.265,0.256,2.542,0.434,3.832
			c-0.253,0.272-0.509,0.542-0.752,0.824c-3.912,4.525-6.346,10.05-7.099,15.858c-17.572-0.413-33.416-6.046-40.745-14.612
			c-4.32-5.047-10.731-7.942-17.591-7.942h-28.685c-0.873-22.211-19.205-40.013-41.627-40.013
			c-22.422,0-40.754,17.803-41.628,40.013h-28.685c-6.86,0-13.271,2.894-17.591,7.942c-7.323,8.557-23.141,14.187-40.745,14.611
			c-0.753-5.809-3.187-11.333-7.099-15.857c-0.243-0.282-0.498-0.552-0.752-0.824c0.178-1.29,0.322-2.567,0.434-3.832
			c10.183,1.668,22.004,2.565,34.245,2.565c22.616,0,32.917-11.964,32.917-23.079c0-11.116-10.3-23.079-32.917-23.079
			c-17.783,0-34.397,1.87-46.543,5.178c-4.007-2.95-8.784-4.492-14.089-4.492s-10.082,1.542-14.089,4.492
			c-12.145-3.309-28.759-5.179-46.543-5.179C10.3,117.884,0,129.848,0,140.963c0,11.116,10.3,23.079,32.917,23.079
			c12.241,0,24.062-0.897,34.245-2.565c0.112,1.265,0.256,2.542,0.434,3.832c-0.253,0.272-0.509,0.542-0.752,0.824
			c-5.739,6.638-8.303,15.424-7.035,24.107l3.867,26.491c2.148,14.724,14.991,25.828,29.872,25.828
			c10.945,0,20.782-6.011,26.077-15.048c1.784,0.437,3.621,0.676,5.475,0.676h14.707c0,0-14.311,69.033-14.369,69.315
			c-2.05,9.885,13.237,13.025,15.281,3.169l15.026-72.483h21.252l-25.608,123.525l-20.376-4.224c0,0,3.534-17.05,3.551-17.13
			c2.017-9.732-13.227-13.079-15.281-3.168c0,0-3.565,17.195-3.566,17.2c0.124-0.599-5.231,1.479-5.707,1.896
			c-2.485,2.17-2.818,5.742-3.448,8.78c-1.779,8.581-0.11,17.341,4.7,24.666c15.662,23.853,53.758,16.583,59.549-11.344
			c1.024-4.94,2.12-11.26-4.157-13.436l26.279-126.763h38.421V256h-22.175c-4.31,0-7.803,3.494-7.803,7.803v93.639
			c0,4.309,3.493,7.803,7.803,7.803h93.639c4.31,0,7.803-3.494,7.803-7.803v-93.639c0-4.309-3.493-7.803-7.803-7.803h-22.175
			v-27.811h38.42c0,0,26.241,126.576,26.279,126.762c-0.135-0.65-4.399,3.746-4.669,4.42c-2.962,7.358,3.675,19.276,8.456,24.487
			c21.769,23.726,62.905,3.025,56.308-28.79c-0.548-2.644-0.711-5.606-2.492-7.776c-0.601-0.733-6.817-3.637-6.663-2.899
			l-14.337-69.155c-0.875-4.22-5.004-6.93-9.224-6.056c-4.22,0.875-6.931,5.005-6.056,9.224l14.323,69.083l-20.376,4.224
			l-25.609-123.526h21.252l4.109,19.821c0.875,4.221,5.005,6.931,9.224,6.056c4.219-0.875,6.931-5.005,6.056-9.224l-3.452-16.653
			h14.707c1.855,0,3.691-0.239,5.476-0.676c5.296,9.036,15.132,15.048,26.076,15.048c14.881,0,27.723-11.104,29.872-25.828
			l3.868-26.491c1.268-8.682-1.296-17.469-7.035-24.107c-0.243-0.282-0.499-0.552-0.752-0.824c0.178-1.29,0.322-2.567,0.434-3.832
			c10.182,1.668,22.003,2.565,34.244,2.565c22.616,0,32.918-11.964,32.918-23.079C512,129.848,501.698,117.884,479.082,117.884z
			 M69.656,137.121c-0.96,2.736-1.651,5.583-2.096,8.448c-9.915,1.86-21.981,2.867-34.642,2.867
			c-11.809,0-17.311-4.459-17.311-7.472c0-3.013,5.502-7.472,17.311-7.472c13.607,0,26.673,1.195,36.849,3.297
			C69.727,136.897,69.695,137.012,69.656,137.121z M82.566,152.271c0.282-5.241,1.11-11.165,4.717-15.304
			c1.669-1.919,3.611-2.788,6.264-2.788c2.652,0,4.595,0.869,6.263,2.786c3.599,4.136,4.435,10.023,4.719,15.306
			c0.074,1.382,0.097,2.807,0.059,4.27c-2.343-0.568-4.763-0.85-7.174-0.85H89.68c-0.635,0-7.185,0.375-7.174,0.85
			C82.47,155.078,82.492,153.652,82.566,152.271z M111.846,187.987c-1.289,8.831-2.578,17.661-3.868,26.493
			c-1.026,7.017-7.34,12.474-14.43,12.474c-7.187,0-13.391-5.363-14.43-12.476l-3.867-26.491c-0.612-4.194,0.627-8.439,3.399-11.645
			c2.727-3.154,6.861-5.045,11.032-5.045h7.736c4.177,0,8.299,1.885,11.032,5.045C111.218,179.548,112.457,183.792,111.846,187.987z
			 M118.574,140.868c-0.324-1.263-0.7-2.513-1.132-3.743c-0.039-0.11-0.072-0.226-0.111-0.335
			c10.177-2.102,23.243-3.297,36.849-3.297c11.809,0,17.311,4.459,17.311,7.472c0,3.014-5.502,7.472-17.311,7.472
			c-12.661,0-24.727-1.008-34.642-2.867c-0.149-0.028-0.731-3.766-0.838-4.198C118.658,141.203,118.617,141.035,118.574,140.868z
			 M149.505,374.609c-2.944,2.882-6.59,4.276-10.793,4.257c-9.456-0.043-17.403-7.902-17.232-17.416c0,0,33.075,6.857,33.096,6.862
			C154.321,369.962,150.686,373.454,149.505,374.609z M357.423,368.311c0.002,0.001,33.095-6.861,33.095-6.861
			c0.062,3.426-0.903,6.79-2.825,9.717c-4.742,7.226-14.493,9.825-22.19,5.881C364.429,376.497,356.524,368.498,357.423,368.311z
			 M256,135.033c13.814,0,25.154,10.805,26.01,24.406h-52.021C230.845,145.837,242.184,135.033,256,135.033z M295.016,271.605
			v78.033h-78.033v-78.033h22.175h33.684H295.016z M246.961,255.999v-27.811h18.078v27.811H246.961z M124.038,212.508l2.171-14.873
			c22.739-0.202,43.271-7.867,53.746-20.106c1.35-1.578,3.441-2.484,5.734-2.484H326.31c2.293,0,4.383,0.905,5.734,2.482
			c10.475,12.24,31.007,19.905,53.746,20.106l2.172,14.873C387.625,212.556,124.374,212.556,124.038,212.508z M394.552,137.118
			c-0.479,1.36-0.874,2.743-1.218,4.144c-0.342,1.393-0.641,2.825-0.872,4.307c-9.915,1.859-21.98,2.867-34.642,2.867
			c-11.81,0-17.312-4.459-17.312-7.472c0-3.013,5.502-7.472,17.312-7.472c13.606,0,26.672,1.196,36.849,3.297
			C394.63,136.898,394.59,137.008,394.552,137.118z M407.466,152.313c0.363-6.701,2.198-18.135,10.984-18.135
			c7.814,0,10.12,9.491,10.786,15.647c0.007,0.066,0.015,0.131,0.021,0.198c0.217,2.129,0.471,4.468,0.197,6.594
			c-2.196-0.831-4.698-0.907-7.023-0.924c-0.037,0-0.074-0.003-0.111-0.003h-7.736c-0.037,0-0.075,0.003-0.112,0.003
			c-2.393,0.009-4.686,0.578-7.025,0.792C407.27,155.136,407.393,153.676,407.466,152.313z M436.748,187.986l-3.868,26.491
			c-1.038,7.112-7.242,12.476-14.43,12.476c-6.848,0-12.792-4.872-14.237-11.484c-0.006-0.035-0.007-0.071-0.015-0.106l-0.059-0.285
			c-0.042-0.199-0.088-0.396-0.119-0.6l-3.868-26.49c-0.612-4.194,0.627-8.438,3.399-11.645c2.723-3.148,6.868-5.045,11.032-5.045
			h7.736c4.149,0,8.316,1.905,11.031,5.045C436.122,179.548,437.36,183.793,436.748,187.986z M479.082,148.437
			c-12.661,0-24.727-1.008-34.641-2.867c-0.12-0.767-1.724-8.88-2.208-8.78c10.177-2.102,23.243-3.297,36.849-3.297
			c11.81,0,17.312,4.459,17.312,7.472C496.393,143.977,490.891,148.437,479.082,148.437z"/>
	</g>
</g>
<g>
</g>
<g>
</g>
<g>
</g>
<g>
</g>
<g>
</g>
<g>
</g>
<g>
</g>
<g>
</g>
<g>
</g>
<g>
</g>
<g>
</g>
<g>
</g>
<g>
</g>
<g>
</g>
<g>
</g>
</svg>
